<?xml version="1.0" encoding="UTF-8" standalone="no"?>
<!-- Created with Inkscape (http://www.inkscape.org/) -->

<svg
   xmlns:dc="http://purl.org/dc/elements/1.1/"
   xmlns:cc="http://creativecommons.org/ns#"
   xmlns:rdf="http://www.w3.org/1999/02/22-rdf-syntax-ns#"
   xmlns:svg="http://www.w3.org/2000/svg"
   xmlns="http://www.w3.org/2000/svg"
   xmlns:sodipodi="http://sodipodi.sourceforge.net/DTD/sodipodi-0.dtd"
   xmlns:inkscape="http://www.inkscape.org/namespaces/inkscape"
   width="744.09448819"
   height="1052.3622047"
   id="svg2"
   version="1.1"
   inkscape:version="0.48.3.1 r9886"
   sodipodi:docname="Nowy dokument 1">
  <defs
     id="defs4" />
  <sodipodi:namedview
     id="base"
     pagecolor="#ffffff"
     bordercolor="#666666"
     borderopacity="1.0"
     inkscape:pageopacity="0.0"
     inkscape:pageshadow="2"
     inkscape:zoom="0.57248215"
     inkscape:cx="455.65802"
     inkscape:cy="536.30904"
     inkscape:document-units="px"
     inkscape:current-layer="layer1"
     showgrid="false"
     inkscape:window-width="1366"
     inkscape:window-height="748"
     inkscape:window-x="0"
     inkscape:window-y="-3"
     inkscape:window-maximized="1" />
  <metadata
     id="metadata7">
    <rdf:RDF>
      <cc:Work
         rdf:about="">
        <dc:format>image/svg+xml</dc:format>
        <dc:type
           rdf:resource="http://purl.org/dc/dcmitype/StillImage" />
        <dc:title></dc:title>
      </cc:Work>
    </rdf:RDF>
  </metadata>
  <g
     inkscape:label="Layer 1"
     inkscape:groupmode="layer"
     id="layer1">
    <path
       style="fill:#048600;stroke:none;stroke-width:15;stroke-linecap:round;stroke-linejoin:round;stroke-miterlimit:4;stroke-opacity:1;stroke-dasharray:none;fill-opacity:1"
       d="m 271.42857,876.36218 -2.85714,-319.14285 c -28.39672,-2.02164 -133.46876,-28.58709 -152.80211,-78.42968 -21.446947,-69.45056 -6.92238,-170.10788 21.63034,-172.32519 55.09757,-16.39381 63.25187,201.33056 125.45748,137.32629 3.16515,-91.05097 -16.55062,-247.79059 51.42857,-248.57142 77.692,2.19629 77.97898,185.68322 71.42858,296.57142 127.58993,-12.81187 100.33394,-106.03523 139.59644,-112.26737 39.96107,-1.15505 42.20102,36.24479 37.54641,75.69595 -8.73725,71.17981 -96.44727,118.04725 -174.28571,138.57142 L 400,875.21933 z"
       id="path3753"
       inkscape:connector-curvature="0"
       sodipodi:nodetypes="cccccccccccc" />
    <path
       style="fill:none;stroke:#036700;stroke-width:5;stroke-linecap:round;stroke-linejoin:round;stroke-miterlimit:4;stroke-opacity:1;stroke-dasharray:none"
       d="m 165.90956,421.97378 c 0,-8.93144 0,-17.86289 0,-26.79434"
       id="path3755"
       inkscape:connector-curvature="0" />
    <path
       style="fill:none;stroke:#036700;stroke-width:5;stroke-linecap:round;stroke-linejoin:round;stroke-miterlimit:4;stroke-opacity:1;stroke-dasharray:none"
       d="m 128.06024,430.27656 c 0,-8.93144 0,-17.86289 0,-26.79434"
       id="path3755-4"
       inkscape:connector-curvature="0" />
    <path
       style="fill:none;stroke:#036700;stroke-width:5;stroke-linecap:round;stroke-linejoin:round;stroke-miterlimit:4;stroke-opacity:1;stroke-dasharray:none"
       d="m 125.06208,383.32355 c 0,-8.93144 0,-17.86289 0,-26.79434"
       id="path3755-2"
       inkscape:connector-curvature="0" />
    <path
       style="fill:none;stroke:#036700;stroke-width:5;stroke-linecap:round;stroke-linejoin:round;stroke-miterlimit:4;stroke-opacity:1;stroke-dasharray:none"
       d="m 153.64935,356.54561 c 0,-8.93144 0,-17.86289 0,-26.79434"
       id="path3755-26"
       inkscape:connector-curvature="0" />
    <path
       style="fill:none;stroke:#036700;stroke-width:5;stroke-linecap:round;stroke-linejoin:round;stroke-miterlimit:4;stroke-opacity:1;stroke-dasharray:none"
       d="m 171.90772,376.27001 c 0,-8.93144 0,-17.86289 0,-26.79434"
       id="path3755-6"
       inkscape:connector-curvature="0" />
    <path
       style="fill:none;stroke:#036700;stroke-width:5;stroke-linecap:round;stroke-linejoin:round;stroke-miterlimit:4;stroke-opacity:1;stroke-dasharray:none"
       d="m 144.49541,395.31925 c 0,-8.93144 0,-17.86289 0,-26.79434"
       id="path3755-8"
       inkscape:connector-curvature="0" />
    <path
       style="fill:none;stroke:#036700;stroke-width:5;stroke-linecap:round;stroke-linejoin:round;stroke-miterlimit:4;stroke-opacity:1;stroke-dasharray:none"
       d="m 186.77542,429.70078 c 0,-8.93144 0,-17.86289 0,-26.79434"
       id="path3755-5"
       inkscape:connector-curvature="0" />
    <path
       style="fill:none;stroke:#036700;stroke-width:5;stroke-linecap:round;stroke-linejoin:round;stroke-miterlimit:4;stroke-opacity:1;stroke-dasharray:none"
       d="m 135.66772,339.10077 c 0,-8.93144 0,-17.86289 0,-26.79434"
       id="path3755-9"
       inkscape:connector-curvature="0" />
    <path
       style="fill:none;stroke:#036700;stroke-width:5;stroke-linecap:round;stroke-linejoin:round;stroke-miterlimit:4;stroke-opacity:1;stroke-dasharray:none"
       d="m 147.2831,459.43617 c 0,-8.93144 0,-17.86289 0,-26.79434"
       id="path3755-0"
       inkscape:connector-curvature="0" />
    <path
       style="fill:none;stroke:#036700;stroke-width:5;stroke-linecap:round;stroke-linejoin:round;stroke-miterlimit:4;stroke-opacity:1;stroke-dasharray:none"
       d="m 130.55694,477.09156 c 0,-8.93144 0,-17.86289 0,-26.79434"
       id="path3755-89"
       inkscape:connector-curvature="0" />
    <path
       style="fill:none;stroke:#036700;stroke-width:5;stroke-linecap:round;stroke-linejoin:round;stroke-miterlimit:4;stroke-opacity:1;stroke-dasharray:none"
       d="m 170.97849,478.48541 c 0,-8.93144 0,-17.86289 0,-26.79434"
       id="path3755-82"
       inkscape:connector-curvature="0" />
    <path
       style="fill:none;stroke:#036700;stroke-width:5;stroke-linecap:round;stroke-linejoin:round;stroke-miterlimit:4;stroke-opacity:1;stroke-dasharray:none"
       d="m 201.64311,461.29463 c 0,-8.93144 0,-17.86289 0,-26.79434"
       id="path3755-46"
       inkscape:connector-curvature="0" />
    <path
       style="fill:none;stroke:#036700;stroke-width:5;stroke-linecap:round;stroke-linejoin:round;stroke-miterlimit:4;stroke-opacity:1;stroke-dasharray:none"
       d="m 152.85848,504.96849 c 0,-8.93144 0,-17.86289 0,-26.79434"
       id="path3755-83"
       inkscape:connector-curvature="0" />
    <path
       style="fill:none;stroke:#036700;stroke-width:5;stroke-linecap:round;stroke-linejoin:round;stroke-miterlimit:4;stroke-opacity:1;stroke-dasharray:none"
       d="m 185.84619,511.47311 c 0,-8.93144 0,-17.86289 0,-26.79434"
       id="path3755-62"
       inkscape:connector-curvature="0" />
    <path
       style="fill:none;stroke:#036700;stroke-width:5;stroke-linecap:round;stroke-linejoin:round;stroke-miterlimit:4;stroke-opacity:1;stroke-dasharray:none"
       d="m 213.2585,497.53464 c 0,-8.93144 0,-17.86289 0,-26.79434"
       id="path3755-7"
       inkscape:connector-curvature="0" />
    <path
       style="fill:none;stroke:#036700;stroke-width:5;stroke-linecap:round;stroke-linejoin:round;stroke-miterlimit:4;stroke-opacity:1;stroke-dasharray:none"
       d="m 232.77234,488.70695 c 0,-8.93144 0,-17.86289 0,-26.79434"
       id="path3755-96"
       inkscape:connector-curvature="0" />
    <path
       style="fill:none;stroke:#036700;stroke-width:5;stroke-linecap:round;stroke-linejoin:round;stroke-miterlimit:4;stroke-opacity:1;stroke-dasharray:none"
       d="m 227.66158,533.77465 c 0,-8.93144 0,-17.86289 0,-26.79434"
       id="path3755-1"
       inkscape:connector-curvature="0" />
    <path
       style="fill:none;stroke:#036700;stroke-width:5;stroke-linecap:round;stroke-linejoin:round;stroke-miterlimit:4;stroke-opacity:1;stroke-dasharray:none"
       d="m 248.10466,512.86695 c 0,-8.93144 0,-17.86289 0,-26.79434"
       id="path3755-09"
       inkscape:connector-curvature="0" />
    <path
       style="fill:none;stroke:#036700;stroke-width:5;stroke-linecap:round;stroke-linejoin:round;stroke-miterlimit:4;stroke-opacity:1;stroke-dasharray:none"
       d="m 262.04312,483.13156 c 0,-8.93144 0,-17.86289 0,-26.79434"
       id="path3755-86"
       inkscape:connector-curvature="0" />
    <path
       style="fill:none;stroke:#036700;stroke-width:5;stroke-linecap:round;stroke-linejoin:round;stroke-miterlimit:4;stroke-opacity:1;stroke-dasharray:none"
       d="m 262.50774,543.99619 c 0,-8.93144 0,-17.86289 0,-26.79434"
       id="path3755-52"
       inkscape:connector-curvature="0" />
    <path
       style="fill:none;stroke:#036700;stroke-width:5;stroke-linecap:round;stroke-linejoin:round;stroke-miterlimit:4;stroke-opacity:1;stroke-dasharray:none"
       d="m 335.45236,545.39004 c 0,-8.93144 0,-17.86289 0,-26.79434"
       id="path3755-87"
       inkscape:connector-curvature="0" />
    <path
       style="fill:none;stroke:#036700;stroke-width:5;stroke-linecap:round;stroke-linejoin:round;stroke-miterlimit:4;stroke-opacity:1;stroke-dasharray:none"
       d="m 318.26159,495.21157 c 0,-8.93144 0,-17.86289 0,-26.79434"
       id="path3755-60"
       inkscape:connector-curvature="0" />
    <path
       style="fill:none;stroke:#036700;stroke-width:5;stroke-linecap:round;stroke-linejoin:round;stroke-miterlimit:4;stroke-opacity:1;stroke-dasharray:none"
       d="m 358.21852,438.9931 c 0,-8.93144 0,-17.86289 0,-26.79434"
       id="path3755-25"
       inkscape:connector-curvature="0" />
    <path
       style="fill:none;stroke:#036700;stroke-width:5;stroke-linecap:round;stroke-linejoin:round;stroke-miterlimit:4;stroke-opacity:1;stroke-dasharray:none"
       d="m 289.92005,252.68229 c 0,-8.93144 0,-17.86289 0,-26.79434"
       id="path3755-80"
       inkscape:connector-curvature="0" />
    <path
       style="fill:none;stroke:#036700;stroke-width:5;stroke-linecap:round;stroke-linejoin:round;stroke-miterlimit:4;stroke-opacity:1;stroke-dasharray:none"
       d="m 335.45236,248.03614 c 0,-8.93144 0,-17.86289 0,-26.79434"
       id="path3755-07"
       inkscape:connector-curvature="0" />
    <path
       style="fill:none;stroke:#036700;stroke-width:5;stroke-linecap:round;stroke-linejoin:round;stroke-miterlimit:4;stroke-opacity:1;stroke-dasharray:none"
       d="m 348.4616,274.51922 c 0,-8.93144 0,-17.86289 0,-26.79434"
       id="path3755-08"
       inkscape:connector-curvature="0" />
    <path
       style="fill:none;stroke:#036700;stroke-width:5;stroke-linecap:round;stroke-linejoin:round;stroke-miterlimit:4;stroke-opacity:1;stroke-dasharray:none"
       d="m 312.68621,271.26691 c 0,-8.93144 0,-17.86289 0,-26.79434"
       id="path3755-70"
       inkscape:connector-curvature="0" />
    <path
       style="fill:none;stroke:#036700;stroke-width:5;stroke-linecap:round;stroke-linejoin:round;stroke-miterlimit:4;stroke-opacity:1;stroke-dasharray:none"
       d="m 282.95082,319.58692 c 0,-8.93144 0,-17.86289 0,-26.79434"
       id="path3755-23"
       inkscape:connector-curvature="0" />
    <path
       style="fill:none;stroke:#036700;stroke-width:5;stroke-linecap:round;stroke-linejoin:round;stroke-miterlimit:4;stroke-opacity:1;stroke-dasharray:none"
       d="m 331.27082,298.67923 c 0,-8.93144 0,-17.86289 0,-26.79434"
       id="path3755-72"
       inkscape:connector-curvature="0" />
    <path
       style="fill:none;stroke:#036700;stroke-width:5;stroke-linecap:round;stroke-linejoin:round;stroke-miterlimit:4;stroke-opacity:1;stroke-dasharray:none"
       d="m 307.57544,335.38385 c 0,-8.93144 0,-17.86289 0,-26.79434"
       id="path3755-63"
       inkscape:connector-curvature="0" />
    <path
       style="fill:none;stroke:#036700;stroke-width:5;stroke-linecap:round;stroke-linejoin:round;stroke-miterlimit:4;stroke-opacity:1;stroke-dasharray:none"
       d="m 362.40006,311.68846 c 0,-8.93144 0,-17.86289 0,-26.79434"
       id="path3755-56"
       inkscape:connector-curvature="0" />
    <path
       style="fill:none;stroke:#036700;stroke-width:5;stroke-linecap:round;stroke-linejoin:round;stroke-miterlimit:4;stroke-opacity:1;stroke-dasharray:none"
       d="m 337.77544,336.77769 c 0,-8.93144 0,-17.86289 0,-26.79434"
       id="path3755-41"
       inkscape:connector-curvature="0" />
    <path
       style="fill:none;stroke:#036700;stroke-width:5;stroke-linecap:round;stroke-linejoin:round;stroke-miterlimit:4;stroke-opacity:1;stroke-dasharray:none"
       d="m 376.33852,360.00847 c 0,-8.93144 0,-17.86289 0,-26.79434"
       id="path3755-77"
       inkscape:connector-curvature="0" />
    <path
       style="fill:none;stroke:#036700;stroke-width:5;stroke-linecap:round;stroke-linejoin:round;stroke-miterlimit:4;stroke-opacity:1;stroke-dasharray:none"
       d="m 351.7139,361.86693 c 0,-8.93144 0,-17.86289 0,-26.79434"
       id="path3755-05"
       inkscape:connector-curvature="0" />
    <path
       style="fill:none;stroke:#036700;stroke-width:5;stroke-linecap:round;stroke-linejoin:round;stroke-miterlimit:4;stroke-opacity:1;stroke-dasharray:none"
       d="m 276.91082,375.80539 c 0,-8.93144 0,-17.86289 0,-26.79434"
       id="path3755-58"
       inkscape:connector-curvature="0" />
    <path
       style="fill:none;stroke:#036700;stroke-width:5;stroke-linecap:round;stroke-linejoin:round;stroke-miterlimit:4;stroke-opacity:1;stroke-dasharray:none"
       d="m 300.6062,375.80539 c 0,-8.93144 0,-17.86289 0,-26.79434"
       id="path3755-93"
       inkscape:connector-curvature="0" />
    <path
       style="fill:none;stroke:#036700;stroke-width:5;stroke-linecap:round;stroke-linejoin:round;stroke-miterlimit:4;stroke-opacity:1;stroke-dasharray:none"
       d="m 327.08928,396.71309 c 0,-8.93144 0,-17.86289 0,-26.79434"
       id="path3755-565"
       inkscape:connector-curvature="0" />
    <path
       style="fill:none;stroke:#036700;stroke-width:5;stroke-linecap:round;stroke-linejoin:round;stroke-miterlimit:4;stroke-opacity:1;stroke-dasharray:none"
       d="m 365.18775,402.28847 c 0,-8.93144 0,-17.86289 0,-26.79434"
       id="path3755-71"
       inkscape:connector-curvature="0" />
    <path
       style="fill:none;stroke:#036700;stroke-width:5;stroke-linecap:round;stroke-linejoin:round;stroke-miterlimit:4;stroke-opacity:1;stroke-dasharray:none"
       d="m 281.55697,433.41771 c 0,-8.93144 0,-17.86289 0,-26.79434"
       id="path3755-3"
       inkscape:connector-curvature="0" />
    <path
       style="fill:none;stroke:#036700;stroke-width:5;stroke-linecap:round;stroke-linejoin:round;stroke-miterlimit:4;stroke-opacity:1;stroke-dasharray:none"
       d="m 305.25236,416.69155 c 0,-8.93144 0,-17.86289 0,-26.79434"
       id="path3755-831"
       inkscape:connector-curvature="0" />
    <path
       style="fill:none;stroke:#036700;stroke-width:5;stroke-linecap:round;stroke-linejoin:round;stroke-miterlimit:4;stroke-opacity:1;stroke-dasharray:none"
       d="m 293.17236,473.83925 c 0,-8.93144 0,-17.86289 0,-26.79434"
       id="path3755-01"
       inkscape:connector-curvature="0" />
    <path
       style="fill:none;stroke:#036700;stroke-width:5;stroke-linecap:round;stroke-linejoin:round;stroke-miterlimit:4;stroke-opacity:1;stroke-dasharray:none"
       d="m 321.97851,452.46694 c 0,-8.93144 0,-17.86289 0,-26.79434"
       id="path3755-014"
       inkscape:connector-curvature="0" />
    <path
       style="fill:none;stroke:#036700;stroke-width:5;stroke-linecap:round;stroke-linejoin:round;stroke-miterlimit:4;stroke-opacity:1;stroke-dasharray:none"
       d="m 345.67391,416.69155 c 0,-8.93144 0,-17.86289 0,-26.79434"
       id="path3755-30"
       inkscape:connector-curvature="0" />
    <path
       style="fill:none;stroke:#036700;stroke-width:5;stroke-linecap:round;stroke-linejoin:round;stroke-miterlimit:4;stroke-opacity:1;stroke-dasharray:none"
       d="m 345.20929,490.56541 c 0,-8.93144 0,-17.86289 0,-26.79434"
       id="path3755-61"
       inkscape:connector-curvature="0" />
    <path
       style="fill:none;stroke:#036700;stroke-width:5;stroke-linecap:round;stroke-linejoin:round;stroke-miterlimit:4;stroke-opacity:1;stroke-dasharray:none"
       d="m 374.94468,461.75925 c 0,-8.93144 0,-17.86289 0,-26.79434"
       id="path3755-53"
       inkscape:connector-curvature="0" />
    <path
       style="fill:none;stroke:#036700;stroke-width:5;stroke-linecap:round;stroke-linejoin:round;stroke-miterlimit:4;stroke-opacity:1;stroke-dasharray:none"
       d="m 284.80928,525.41157 c 0,-8.93144 0,-17.86289 0,-26.79434"
       id="path3755-717"
       inkscape:connector-curvature="0" />
    <path
       style="fill:none;stroke:#036700;stroke-width:5;stroke-linecap:round;stroke-linejoin:round;stroke-miterlimit:4;stroke-opacity:1;stroke-dasharray:none"
       d="m 372.6216,510.54388 c 0,-8.93144 0,-17.86289 0,-26.79434"
       id="path3755-48"
       inkscape:connector-curvature="0" />
    <path
       style="fill:none;stroke:#036700;stroke-width:5;stroke-linecap:round;stroke-linejoin:round;stroke-miterlimit:4;stroke-opacity:1;stroke-dasharray:none"
       d="m 308.50467,544.4608 c 0,-8.93144 0,-17.86289 0,-26.79434"
       id="path3755-91"
       inkscape:connector-curvature="0" />
    <path
       style="fill:none;stroke:#036700;stroke-width:5;stroke-linecap:round;stroke-linejoin:round;stroke-miterlimit:4;stroke-opacity:1;stroke-dasharray:none"
       d="m 356.36006,571.4085 c 0,-8.93144 0,-17.86289 0,-26.79434"
       id="path3755-57"
       inkscape:connector-curvature="0" />
    <path
       style="fill:none;stroke:#036700;stroke-width:5;stroke-linecap:round;stroke-linejoin:round;stroke-miterlimit:4;stroke-opacity:1;stroke-dasharray:none"
       d="m 281.09235,596.03312 c 0,-8.93144 0,-17.86289 0,-26.79434"
       id="path3755-38"
       inkscape:connector-curvature="0" />
    <path
       style="fill:none;stroke:#036700;stroke-width:5;stroke-linecap:round;stroke-linejoin:round;stroke-miterlimit:4;stroke-opacity:1;stroke-dasharray:none"
       d="m 297.35389,583.02389 c 0,-8.93144 0,-17.86289 0,-26.79434"
       id="path3755-39"
       inkscape:connector-curvature="0" />
    <path
       style="fill:none;stroke:#036700;stroke-width:5;stroke-linecap:round;stroke-linejoin:round;stroke-miterlimit:4;stroke-opacity:1;stroke-dasharray:none"
       d="m 325.23082,574.66081 c 0,-8.93144 0,-17.86289 0,-26.79434"
       id="path3755-32"
       inkscape:connector-curvature="0" />
    <path
       style="fill:none;stroke:#036700;stroke-width:5;stroke-linecap:round;stroke-linejoin:round;stroke-miterlimit:4;stroke-opacity:1;stroke-dasharray:none"
       d="m 294.5662,651.32236 c 0,-8.93144 0,-17.86289 0,-26.79434"
       id="path3755-27"
       inkscape:connector-curvature="0" />
    <path
       style="fill:none;stroke:#036700;stroke-width:5;stroke-linecap:round;stroke-linejoin:round;stroke-miterlimit:4;stroke-opacity:1;stroke-dasharray:none"
       d="m 313.61544,611.36543 c 0,-8.93144 0,-17.86289 0,-26.79434"
       id="path3755-250"
       inkscape:connector-curvature="0" />
    <path
       style="fill:none;stroke:#036700;stroke-width:5;stroke-linecap:round;stroke-linejoin:round;stroke-miterlimit:4;stroke-opacity:1;stroke-dasharray:none"
       d="m 323.37236,665.26082 c 0,-8.93144 0,-17.86289 0,-26.79434"
       id="path3755-382"
       inkscape:connector-curvature="0" />
    <path
       style="fill:none;stroke:#036700;stroke-width:5;stroke-linecap:round;stroke-linejoin:round;stroke-miterlimit:4;stroke-opacity:1;stroke-dasharray:none"
       d="m 351.24929,614.15312 c 0,-8.93144 0,-17.86289 0,-26.79434"
       id="path3755-64"
       inkscape:connector-curvature="0" />
    <path
       style="fill:none;stroke:#036700;stroke-width:5;stroke-linecap:round;stroke-linejoin:round;stroke-miterlimit:4;stroke-opacity:1;stroke-dasharray:none"
       d="m 385.63083,576.98389 c 0,-8.93144 0,-17.86289 0,-26.79434"
       id="path3755-563"
       inkscape:connector-curvature="0" />
    <path
       style="fill:none;stroke:#036700;stroke-width:5;stroke-linecap:round;stroke-linejoin:round;stroke-miterlimit:4;stroke-opacity:1;stroke-dasharray:none"
       d="m 401.42776,533.77465 c 0,-8.93144 0,-17.86289 0,-26.79434"
       id="path3755-616"
       inkscape:connector-curvature="0" />
    <path
       style="fill:none;stroke:#036700;stroke-width:5;stroke-linecap:round;stroke-linejoin:round;stroke-miterlimit:4;stroke-opacity:1;stroke-dasharray:none"
       d="m 406.53853,576.51927 c 0,-8.93144 0,-17.86289 0,-26.79434"
       id="path3755-42"
       inkscape:connector-curvature="0" />
    <path
       style="fill:none;stroke:#036700;stroke-width:5;stroke-linecap:round;stroke-linejoin:round;stroke-miterlimit:4;stroke-opacity:1;stroke-dasharray:none"
       d="m 431.16315,521.69465 c 0,-8.93144 0,-17.86289 0,-26.79434"
       id="path3755-303"
       inkscape:connector-curvature="0" />
    <path
       style="fill:none;stroke:#036700;stroke-width:5;stroke-linecap:round;stroke-linejoin:round;stroke-miterlimit:4;stroke-opacity:1;stroke-dasharray:none"
       d="m 416.29545,549.57157 c 0,-8.93144 0,-17.86289 0,-26.79434"
       id="path3755-54"
       inkscape:connector-curvature="0" />
    <path
       style="fill:none;stroke:#036700;stroke-width:5;stroke-linecap:round;stroke-linejoin:round;stroke-miterlimit:4;stroke-opacity:1;stroke-dasharray:none"
       d="m 372.15698,637.3839 c 0,-8.93144 0,-17.86289 0,-26.79434"
       id="path3755-827"
       inkscape:connector-curvature="0" />
    <path
       style="fill:none;stroke:#036700;stroke-width:5;stroke-linecap:round;stroke-linejoin:round;stroke-miterlimit:4;stroke-opacity:1;stroke-dasharray:none"
       d="m 348.4616,688.02698 c 0,-8.93144 0,-17.86289 0,-26.79434"
       id="path3755-97"
       inkscape:connector-curvature="0" />
    <path
       style="fill:none;stroke:#036700;stroke-width:5;stroke-linecap:round;stroke-linejoin:round;stroke-miterlimit:4;stroke-opacity:1;stroke-dasharray:none"
       d="m 380.98468,681.05775 c 0,-8.93144 0,-17.86289 0,-26.79434"
       id="path3755-820"
       inkscape:connector-curvature="0" />
    <path
       style="fill:none;stroke:#036700;stroke-width:5;stroke-linecap:round;stroke-linejoin:round;stroke-miterlimit:4;stroke-opacity:1;stroke-dasharray:none"
       d="m 282.4862,724.7316 c 0,-8.93144 0,-17.86289 0,-26.79434"
       id="path3755-21"
       inkscape:connector-curvature="0" />
    <path
       style="fill:none;stroke:#036700;stroke-width:5;stroke-linecap:round;stroke-linejoin:round;stroke-miterlimit:4;stroke-opacity:1;stroke-dasharray:none"
       d="m 304.32313,700.10698 c 0,-8.93144 0,-17.86289 0,-26.79434"
       id="path3755-273"
       inkscape:connector-curvature="0" />
    <path
       style="fill:none;stroke:#036700;stroke-width:5;stroke-linecap:round;stroke-linejoin:round;stroke-miterlimit:4;stroke-opacity:1;stroke-dasharray:none"
       d="m 311.75697,749.82084 c 0,-8.93144 0,-17.86289 0,-26.79434"
       id="path3755-775"
       inkscape:connector-curvature="0" />
    <path
       style="fill:none;stroke:#036700;stroke-width:5;stroke-linecap:round;stroke-linejoin:round;stroke-miterlimit:4;stroke-opacity:1;stroke-dasharray:none"
       d="m 329.87698,724.26699 c 0,-8.93144 0,-17.86289 0,-26.79434"
       id="path3755-322"
       inkscape:connector-curvature="0" />
    <path
       style="fill:none;stroke:#036700;stroke-width:5;stroke-linecap:round;stroke-linejoin:round;stroke-miterlimit:4;stroke-opacity:1;stroke-dasharray:none"
       d="m 365.18775,730.7716 c 0,-8.93144 0,-17.86289 0,-26.79434"
       id="path3755-95"
       inkscape:connector-curvature="0" />
    <path
       style="fill:none;stroke:#036700;stroke-width:5;stroke-linecap:round;stroke-linejoin:round;stroke-miterlimit:4;stroke-opacity:1;stroke-dasharray:none"
       d="m 340.09852,768.40546 c 0,-8.93144 0,-17.86289 0,-26.79434"
       id="path3755-92"
       inkscape:connector-curvature="0" />
    <path
       style="fill:none;stroke:#036700;stroke-width:5;stroke-linecap:round;stroke-linejoin:round;stroke-miterlimit:4;stroke-opacity:1;stroke-dasharray:none"
       d="m 384.23699,773.98084 c 0,-8.93144 0,-17.86289 0,-26.79434"
       id="path3755-35"
       inkscape:connector-curvature="0" />
    <path
       style="fill:none;stroke:#036700;stroke-width:5;stroke-linecap:round;stroke-linejoin:round;stroke-miterlimit:4;stroke-opacity:1;stroke-dasharray:none"
       d="m 360.07698,781.41469 c 0,-8.93144 0,-17.86289 0,-26.79434"
       id="path3755-59"
       inkscape:connector-curvature="0" />
    <path
       style="fill:none;stroke:#036700;stroke-width:5;stroke-linecap:round;stroke-linejoin:round;stroke-miterlimit:4;stroke-opacity:1;stroke-dasharray:none"
       d="m 282.4862,803.71623 c 0,-8.93144 0,-17.86289 0,-26.79434"
       id="path3755-704"
       inkscape:connector-curvature="0" />
    <path
       style="fill:none;stroke:#036700;stroke-width:5;stroke-linecap:round;stroke-linejoin:round;stroke-miterlimit:4;stroke-opacity:1;stroke-dasharray:none"
       d="m 315.93851,800.92854 c 0,-8.93144 0,-17.86289 0,-26.79434"
       id="path3755-386"
       inkscape:connector-curvature="0" />
    <path
       style="fill:none;stroke:#036700;stroke-width:5;stroke-linecap:round;stroke-linejoin:round;stroke-miterlimit:4;stroke-opacity:1;stroke-dasharray:none"
       d="m 281.55697,854.35932 c 0,-8.93144 0,-17.86289 0,-26.79434"
       id="path3755-274"
       inkscape:connector-curvature="0" />
    <path
       style="fill:none;stroke:#036700;stroke-width:5;stroke-linecap:round;stroke-linejoin:round;stroke-miterlimit:4;stroke-opacity:1;stroke-dasharray:none"
       d="m 303.3939,826.94701 c 0,-8.93144 0,-17.86289 0,-26.79434"
       id="path3755-22"
       inkscape:connector-curvature="0" />
    <path
       style="fill:none;stroke:#036700;stroke-width:5;stroke-linecap:round;stroke-linejoin:round;stroke-miterlimit:4;stroke-opacity:1;stroke-dasharray:none"
       d="m 343.81544,823.6947 c 0,-8.93144 0,-17.86289 0,-26.79434"
       id="path3755-645"
       inkscape:connector-curvature="0" />
    <path
       style="fill:none;stroke:#036700;stroke-width:5;stroke-linecap:round;stroke-linejoin:round;stroke-miterlimit:4;stroke-opacity:1;stroke-dasharray:none"
       d="m 371.69237,811.15008 c 0,-8.93144 0,-17.86289 0,-26.79434"
       id="path3755-03"
       inkscape:connector-curvature="0" />
    <path
       style="fill:none;stroke:#036700;stroke-width:5;stroke-linecap:round;stroke-linejoin:round;stroke-miterlimit:4;stroke-opacity:1;stroke-dasharray:none"
       d="m 361.47083,860.86393 c 0,-8.93144 0,-17.86289 0,-26.79434"
       id="path3755-98"
       inkscape:connector-curvature="0" />
    <path
       style="fill:none;stroke:#036700;stroke-width:5;stroke-linecap:round;stroke-linejoin:round;stroke-miterlimit:4;stroke-opacity:1;stroke-dasharray:none"
       d="m 385.16622,840.88547 c 0,-8.93144 0,-17.86289 0,-26.79434"
       id="path3755-16"
       inkscape:connector-curvature="0" />
    <path
       style="fill:none;stroke:#036700;stroke-width:5;stroke-linecap:round;stroke-linejoin:round;stroke-miterlimit:4;stroke-opacity:1;stroke-dasharray:none"
       d="m 318.26159,852.96547 c 0,-8.93144 0,-17.86289 0,-26.79434"
       id="path3755-13"
       inkscape:connector-curvature="0" />
    <path
       style="fill:none;stroke:#036700;stroke-width:5;stroke-linecap:round;stroke-linejoin:round;stroke-miterlimit:4;stroke-opacity:1;stroke-dasharray:none"
       d="m 339.16929,868.29779 c 0,-8.93144 0,-17.86289 0,-26.79434"
       id="path3755-930"
       inkscape:connector-curvature="0" />
    <path
       style="fill:none;stroke:#036700;stroke-width:5;stroke-linecap:round;stroke-linejoin:round;stroke-miterlimit:4;stroke-opacity:1;stroke-dasharray:none"
       d="m 299.67697,293.56846 c 0,-8.93144 0,-17.86289 0,-26.79434"
       id="path3755-053"
       inkscape:connector-curvature="0" />
    <path
       style="fill:none;stroke:#036700;stroke-width:5;stroke-linecap:round;stroke-linejoin:round;stroke-miterlimit:4;stroke-opacity:1;stroke-dasharray:none"
       d="m 355.89544,526.3408 c 0,-8.93144 0,-17.86289 0,-26.79434"
       id="path3755-722"
       inkscape:connector-curvature="0" />
    <path
       style="fill:none;stroke:#036700;stroke-width:5;stroke-linecap:round;stroke-linejoin:round;stroke-miterlimit:4;stroke-opacity:1;stroke-dasharray:none"
       d="m 337.31083,636.91928 c 0,-8.93144 0,-17.86289 0,-26.79434"
       id="path3755-628"
       inkscape:connector-curvature="0" />
    <path
       style="fill:none;stroke:#036700;stroke-width:4.24626541;stroke-linecap:round;stroke-linejoin:round;stroke-miterlimit:4;stroke-opacity:1;stroke-dasharray:none"
       d="m 360.30928,659.68544 c 0,-8.93144 0,-17.86289 0,-26.79434"
       id="path3755-235"
       inkscape:connector-curvature="0" />
    <path
       style="fill:none;stroke:#036700;stroke-width:5;stroke-linecap:round;stroke-linejoin:round;stroke-miterlimit:4;stroke-opacity:1;stroke-dasharray:none"
       d="m 277.37543,667.11929 c 0,-8.93144 0,-17.86289 0,-26.79434"
       id="path3755-40"
       inkscape:connector-curvature="0" />
    <path
       style="fill:none;stroke:#036700;stroke-width:5;stroke-linecap:round;stroke-linejoin:round;stroke-miterlimit:4;stroke-opacity:1;stroke-dasharray:none"
       d="m 293.63697,766.08238 c 0,-8.93144 0,-17.86289 0,-26.79434"
       id="path3755-19"
       inkscape:connector-curvature="0" />
    <path
       style="fill:none;stroke:#036700;stroke-width:5;stroke-linecap:round;stroke-linejoin:round;stroke-miterlimit:4;stroke-opacity:1;stroke-dasharray:none"
       d="m 304.78774,229.91613 c 0,-8.93144 0,-17.86289 0,-26.79434"
       id="path3755-47"
       inkscape:connector-curvature="0" />
    <path
       style="fill:none;stroke:#036700;stroke-width:5;stroke-linecap:round;stroke-linejoin:round;stroke-miterlimit:4;stroke-opacity:1;stroke-dasharray:none"
       d="m 434.88007,568.62081 c 0,-8.93144 0,-17.86289 0,-26.79434"
       id="path3755-309"
       inkscape:connector-curvature="0" />
    <path
       style="fill:none;stroke:#036700;stroke-width:5;stroke-linecap:round;stroke-linejoin:round;stroke-miterlimit:4;stroke-opacity:1;stroke-dasharray:none"
       d="m 460.89854,499.39311 c 0,-8.93144 0,-17.86289 0,-26.79434"
       id="path3755-7178"
       inkscape:connector-curvature="0" />
    <path
       style="fill:none;stroke:#036700;stroke-width:5;stroke-linecap:round;stroke-linejoin:round;stroke-miterlimit:4;stroke-opacity:1;stroke-dasharray:none"
       d="m 447.42469,528.66388 c 0,-8.93144 0,-17.86289 0,-26.79434"
       id="path3755-913"
       inkscape:connector-curvature="0" />
    <path
       style="fill:none;stroke:#036700;stroke-width:5;stroke-linecap:round;stroke-linejoin:round;stroke-miterlimit:4;stroke-opacity:1;stroke-dasharray:none"
       d="m 459.96931,557.93465 c 0,-8.93144 0,-17.86289 0,-26.79434"
       id="path3755-863"
       inkscape:connector-curvature="0" />
    <path
       style="fill:none;stroke:#036700;stroke-width:5;stroke-linecap:round;stroke-linejoin:round;stroke-miterlimit:4;stroke-opacity:1;stroke-dasharray:none"
       d="m 478.08931,533.77465 c 0,-8.93144 0,-17.86289 0,-26.79434"
       id="path3755-018"
       inkscape:connector-curvature="0" />
    <path
       style="fill:none;stroke:#036700;stroke-width:5;stroke-linecap:round;stroke-linejoin:round;stroke-miterlimit:4;stroke-opacity:1;stroke-dasharray:none"
       d="m 487.84623,495.21157 c 0,-8.93144 0,-17.86289 0,-26.79434"
       id="path3755-963"
       inkscape:connector-curvature="0" />
    <path
       style="fill:none;stroke:#036700;stroke-width:5;stroke-linecap:round;stroke-linejoin:round;stroke-miterlimit:4;stroke-opacity:1;stroke-dasharray:none"
       d="m 503.64316,463.61771 c 0,-8.93144 0,-17.86289 0,-26.79434"
       id="path3755-68"
       inkscape:connector-curvature="0" />
    <path
       style="fill:none;stroke:#036700;stroke-width:5;stroke-linecap:round;stroke-linejoin:round;stroke-miterlimit:4;stroke-opacity:1;stroke-dasharray:none"
       d="m 500.85547,531.91619 c 0,-8.93144 0,-17.86289 0,-26.79434"
       id="path3755-18"
       inkscape:connector-curvature="0" />
    <path
       style="fill:none;stroke:#036700;stroke-width:5;stroke-linecap:round;stroke-linejoin:round;stroke-miterlimit:4;stroke-opacity:1;stroke-dasharray:none"
       d="m 520.83393,493.81772 c 0,-8.93144 0,-17.86289 0,-26.79434"
       id="path3755-164"
       inkscape:connector-curvature="0" />
    <path
       style="fill:none;stroke:#036700;stroke-width:5;stroke-linecap:round;stroke-linejoin:round;stroke-miterlimit:4;stroke-opacity:1;stroke-dasharray:none"
       d="m 517.11701,435.74079 c 0,-8.93144 0,-17.86289 0,-26.79434"
       id="path3755-49"
       inkscape:connector-curvature="0" />
    <path
       style="fill:none;stroke:#036700;stroke-width:5;stroke-linecap:round;stroke-linejoin:round;stroke-miterlimit:4;stroke-opacity:1;stroke-dasharray:none"
       d="m 534.30778,419.01464 c 0,-8.93144 0,-17.86289 0,-26.79434"
       id="path3755-308"
       inkscape:connector-curvature="0" />
    <path
       style="fill:none;stroke:#036700;stroke-width:5;stroke-linecap:round;stroke-linejoin:round;stroke-miterlimit:4;stroke-opacity:1;stroke-dasharray:none"
       d="m 546.8524,473.37464 c 0,-8.93144 0,-17.86289 0,-26.79434"
       id="path3755-90"
       inkscape:connector-curvature="0" />
    <path
       style="fill:none;stroke:#036700;stroke-width:5;stroke-linecap:round;stroke-linejoin:round;stroke-miterlimit:4;stroke-opacity:1;stroke-dasharray:none"
       d="m 534.30778,458.97156 c 0,-8.93144 0,-17.86289 0,-26.79434"
       id="path3755-8635"
       inkscape:connector-curvature="0" />
    <path
       style="fill:none;stroke:#036700;stroke-width:5;stroke-linecap:round;stroke-linejoin:round;stroke-miterlimit:4;stroke-opacity:1;stroke-dasharray:none"
       d="m 551.96317,433.88232 c 0,-8.93144 0,-17.86289 0,-26.79434"
       id="path3755-638"
       inkscape:connector-curvature="0" />
  </g>
</svg>
